HIERARCHY
ROOT Hips
{
	OFFSET -0.001795 -0.223333 0.028219
	CHANNELS 6 Xposition Yposition Zposition Zrotation Yrotation Xrotation 
	JOINT LeftUpLeg
	{
		OFFSET 0.069520 -0.091406 -0.006815
		CHANNELS 3 Zrotation Yrotation Xrotation
		JOINT LeftLeg
		{
			OFFSET 0.034277 -0.375199 -0.004496
			CHANNELS 3 Zrotation Yrotation Xrotation
			JOINT LeftFoot
			{
				OFFSET -0.013596 -0.397961 -0.043693
				CHANNELS 3 Zrotation Yrotation Xrotation
				JOINT LeftToe
				{
					OFFSET 0.026358 -0.055791 0.119288
					CHANNELS 3 Zrotation Yrotation Xrotation
					End Site
					{
						OFFSET 0.000000 0.000000 0.000000
					}
				}
			}
		}
	}
	JOINT RightUpLeg
	{
		OFFSET -0.067670 -0.090522 -0.004320
		CHANNELS 3 Zrotation Yrotation Xrotation
		JOINT RightLeg
		{
			OFFSET -0.038290 -0.382569 -0.008850
			CHANNELS 3 Zrotation Yrotation Xrotation
			JOINT RightFoot
			{
				OFFSET 0.015774 -0.398415 -0.042312
				CHANNELS 3 Zrotation Yrotation Xrotation
				JOINT RightToe
				{
					OFFSET -0.025372 -0.048144 0.123348
					CHANNELS 3 Zrotation Yrotation Xrotation
					End Site
					{
						OFFSET 0.000000 0.000000 0.000000
					}
				}
			}
		}
	}
	JOINT Spine
	{
		OFFSET -0.002533 0.108963 -0.026696
		CHANNELS 3 Zrotation Yrotation Xrotation
		JOINT Spine1
		{
			OFFSET 0.005487 0.135180 0.001092
			CHANNELS 3 Zrotation Yrotation Xrotation
			JOINT Spine2
			{
				OFFSET 0.001457 0.052922 0.025425
				CHANNELS 3 Zrotation Yrotation Xrotation
				JOINT Neck
				{
					OFFSET -0.002778 0.213870 -0.042857
					CHANNELS 3 Zrotation Yrotation Xrotation
					JOINT Head
					{
						OFFSET 0.005152 0.064970 0.051349
						CHANNELS 3 Zrotation Yrotation Xrotation
						End Site
						{
							OFFSET 0.000000 0.000000 0.000000
						}
					}
				}
				JOINT LeftShoulder
				{
					OFFSET 0.078845 0.121749 -0.034090
					CHANNELS 3 Zrotation Yrotation Xrotation
					JOINT LeftArm
					{
						OFFSET 0.090977 0.030469 -0.008868
						CHANNELS 3 Zrotation Yrotation Xrotation
						JOINT LeftForeArm
						{
							OFFSET 0.259612 -0.012772 -0.027456
							CHANNELS 3 Zrotation Yrotation Xrotation
							JOINT LeftHand
							{
								OFFSET 0.249234 0.008986 -0.001171
								CHANNELS 3 Zrotation Yrotation Xrotation
								End Site
								{
									OFFSET 0.000000 0.000000 0.000000
								}
							}
						}
					}
				}
				JOINT RightShoulder
				{
					OFFSET -0.081759 0.118833 -0.038615
					CHANNELS 3 Zrotation Yrotation Xrotation
					JOINT RightArm
					{
						OFFSET -0.096012 0.032551 -0.009143
						CHANNELS 3 Zrotation Yrotation Xrotation
						JOINT RightForeArm
						{
							OFFSET -0.253742 -0.013329 -0.021401
							CHANNELS 3 Zrotation Yrotation Xrotation
							JOINT RightHand
							{
								OFFSET -0.255298 0.007772 -0.005559
								CHANNELS 3 Zrotation Yrotation Xrotation
								End Site
								{
									OFFSET 0.000000 0.000000 0.000000
								}
							}
						}
					}
				}
			}
		}
	}
}
MOTION
Frames: 12
Frame Time: 0.050000
0.007985 0.942461 -0.042746 -2.937286 -2.370576 8.985573 7.569744 -0.390980 -7.069297 5.101696 -0.233617 -4.087839 -1.322347 1.235103 9.666527 0.000000 0.000000 0.000000 -3.801430 0.914669 -10.599252 -3.826227 0.573450 2.602096 3.347789 3.725083 7.345803 0.000000 0.000000 0.000000 -3.009137 0.270604 -8.123605 3.894793 -1.525610 -4.715951 0.600379 -4.513345 0.673116 0.521855 -0.759596 10.185058 0.000000 0.000000 0.000000 26.166374 5.558857 0.525686 -18.851862 -44.330759 4.740454 108.318197 -2.632667 1.621596 0.000000 0.000000 0.000000 -19.031508 -2.072175 2.473818 40.879715 44.248062 9.934579 -134.025677 33.224216 -66.332156 0.000000 0.000000 0.000000 
0.007283 0.941913 -0.043500 -2.863295 -2.019750 9.712036 7.886340 -0.416422 -8.003554 5.023960 -0.235068 -3.956876 -2.062170 0.245334 10.393131 0.000000 0.000000 0.000000 -3.973246 1.006667 -11.997443 -3.202326 0.536566 3.166224 2.479842 1.741528 7.570741 0.000000 0.000000 0.000000 -3.006585 0.279465 -8.386260 3.308846 -1.250690 -5.148713 1.018091 -5.471615 -0.051725 2.037540 -2.030356 9.399287 0.000000 0.000000 0.000000 21.925499 8.561272 -0.501103 -31.378536 -48.960228 10.838535 117.910106 2.538142 9.507164 0.000000 0.000000 0.000000 -16.236278 -4.791810 1.720687 54.595755 42.722401 13.668241 -140.724209 28.065903 -64.961065 0.000000 0.000000 0.000000 
0.006801 0.941388 -0.044112 -2.531776 -2.382435 10.204713 7.913993 -0.427855 -8.827178 5.291917 -0.289429 -3.548736 -2.142332 -0.072154 10.062435 0.000000 0.000000 0.000000 -4.550604 1.032062 -12.714717 -1.996617 0.384055 3.196795 2.553522 2.116998 7.118770 0.000000 0.000000 0.000000 -3.133953 0.290894 -8.803012 2.383553 -0.851684 -5.591642 1.205259 -5.817585 -0.112007 1.735276 -1.673061 9.090459 0.000000 0.000000 0.000000 17.798145 10.545370 -1.489436 -51.786271 -53.417112 22.649105 127.658246 3.987641 12.931534 0.000000 0.000000 0.000000 -12.926715 -6.856316 0.756443 71.885175 38.702676 16.591616 -147.435096 26.759873 -71.132496 0.000000 0.000000 0.000000 
0.006570 0.940328 -0.045408 -2.732240 -2.876962 9.661887 8.329507 -0.373800 -8.049897 4.749835 -0.264167 -3.401160 -1.960601 0.000260 9.562475 0.000000 0.000000 0.000000 -4.321785 1.050428 -12.767980 -1.449110 0.382770 4.417009 2.588705 2.791424 5.978051 0.000000 0.000000 0.000000 -3.027660 0.281980 -8.196610 1.768692 -0.609593 -5.563633 1.841074 -6.482746 -0.036068 2.508887 -2.241951 8.290653 0.000000 0.000000 0.000000 11.942844 10.929440 -2.512196 -63.906830 -54.223784 30.098820 134.789463 3.961382 14.386796 0.000000 0.000000 0.000000 -8.805227 -6.608493 0.016229 80.349979 35.943950 16.733497 -150.079715 24.451681 -69.797028 0.000000 0.000000 0.000000 
0.006578 0.939475 -0.047636 -2.843242 -3.318487 9.201117 8.570711 -0.337368 -7.715384 4.830553 -0.324103 -2.758857 -2.167792 -0.569345 9.156241 0.000000 0.000000 0.000000 -3.610933 1.082489 -12.625154 -1.574490 0.429354 4.910402 2.245930 2.123399 5.704638 0.000000 0.000000 0.000000 -2.934539 0.278242 -7.916615 1.866432 -0.675219 -5.079122 1.469020 -6.777717 -0.425528 1.635896 -1.391301 7.506747 0.000000 0.000000 0.000000 10.924052 9.673782 -2.364827 -66.620060 -56.265341 33.530470 134.383451 2.943753 12.012605 0.000000 0.000000 0.000000 -7.358111 -4.930122 0.153334 82.515667 36.644459 17.914198 -150.091613 26.539960 -75.385545 0.000000 0.000000 0.000000 
0.006771 0.939408 -0.050738 -2.964948 -3.118575 8.889680 9.163834 -0.308727 -7.505029 4.431143 -0.281403 -2.868388 -1.964599 -0.260706 8.954596 0.000000 0.000000 0.000000 -3.243271 1.069898 -12.254560 -1.960838 0.461756 4.551956 2.111738 1.953289 5.493956 0.000000 0.000000 0.000000 -3.406565 0.257604 -7.776868 2.673281 -0.989302 -5.470022 0.873119 -5.989032 0.653907 1.294728 -1.195491 7.173393 0.000000 0.000000 0.000000 11.917567 6.401165 -1.351437 -54.871308 -59.732828 28.331673 130.256041 2.352093 10.117706 0.000000 0.000000 0.000000 -7.022436 -2.796116 0.515139 74.881150 39.670173 18.451024 -148.676339 28.443783 -77.300602 0.000000 0.000000 0.000000 
0.007749 0.939827 -0.053928 -3.152542 -2.359028 8.646177 9.542655 -0.311001 -7.244627 4.032896 -0.226964 -3.100364 -2.357325 -0.576418 9.703654 0.000000 0.000000 0.000000 -2.573410 1.021500 -11.322885 -2.454930 0.471309 3.632238 1.322183 -0.219568 6.351337 0.000000 0.000000 0.000000 -3.692755 0.232780 -7.262656 3.462708 -1.340378 -4.841155 0.773490 -6.144485 0.335579 1.324697 -1.226025 6.735243 0.000000 0.000000 0.000000 14.806644 3.529800 -0.427023 -36.480563 -59.283721 17.418059 126.311041 5.970067 16.441297 0.000000 0.000000 0.000000 -8.543221 -0.529733 1.337420 62.155317 45.054887 17.757986 -142.127577 25.425467 -61.395990 0.000000 0.000000 0.000000 
0.008968 0.940749 -0.056502 -3.154168 -1.458050 8.921030 9.522960 -0.344157 -7.636487 4.152496 -0.215956 -3.307036 -2.461554 -0.671406 9.678309 0.000000 0.000000 0.000000 -1.930606 1.013783 -10.925520 -3.305994 0.520152 2.707777 0.835270 -1.147448 6.205565 0.000000 0.000000 0.000000 -4.067602 0.217237 -7.000525 4.309630 -1.742314 -3.982582 0.872138 -6.419575 -0.153982 0.793058 -0.755605 6.461639 0.000000 0.000000 0.000000 17.157927 2.711069 -0.054765 -23.481914 -56.771541 9.781818 123.577917 9.509996 21.927085 0.000000 0.000000 0.000000 -9.424098 0.973472 1.828976 50.467840 49.000824 15.466743 -136.890356 21.387607 -47.087815 0.000000 0.000000 0.000000 
0.010437 0.940973 -0.058263 -3.266696 -0.663544 9.312531 9.306350 -0.386673 -8.103622 4.550105 -0.218891 -3.606042 -2.553533 -0.560183 10.126500 0.000000 0.000000 0.000000 -1.824352 0.978975 -10.496204 -3.443681 0.471932 1.755056 0.839523 -1.205137 6.516850 0.000000 0.000000 0.000000 -3.811269 0.217488 -6.632738 4.231494 -1.662119 -4.554493 0.924474 -5.703538 0.657751 0.725346 -0.729147 4.934738 0.000000 0.000000 0.000000 17.451757 1.772036 0.297508 -17.324287 -54.829851 6.072503 124.766477 11.606906 25.483208 0.000000 0.000000 0.000000 -9.804438 0.901209 1.741913 43.883120 49.895479 13.421803 -135.288617 18.142862 -38.013880 0.000000 0.000000 0.000000 
0.012011 0.940562 -0.059583 -3.266995 -0.043853 9.450687 8.656742 -0.426422 -8.007569 5.604976 -0.201784 -4.694457 -3.461402 -1.873815 10.572996 0.000000 0.000000 0.000000 -1.532007 0.973109 -10.319560 -3.543160 0.485423 1.743891 0.372465 -2.225848 6.640283 0.000000 0.000000 0.000000 -4.046030 0.205502 -6.013317 4.693825 -1.837241 -4.749282 1.119389 -5.468387 0.365738 1.503356 -1.319220 3.131576 0.000000 0.000000 0.000000 15.759279 2.626330 0.114587 -15.843193 -55.340456 5.329188 126.973747 12.298554 27.329501 0.000000 0.000000 0.000000 -9.100198 1.063565 1.638168 43.690633 51.419862 14.160494 -135.036875 14.851218 -30.438275 0.000000 0.000000 0.000000 
0.013535 0.940417 -0.060827 -2.911838 0.850722 9.467873 8.185824 -0.464050 -8.105210 5.967560 -0.195624 -4.968803 -4.208980 -3.112030 10.480915 0.000000 0.000000 0.000000 -1.847914 0.942555 -10.188465 -3.467521 0.474211 1.654624 -0.418795 -3.983329 6.964707 0.000000 0.000000 0.000000 -4.517036 0.191239 -5.530850 4.760679 -1.846522 -4.890669 1.502573 -5.509515 -0.290015 1.653032 -1.276426 0.329656 0.000000 0.000000 0.000000 14.108527 2.931633 0.003996 -19.220136 -58.023956 7.374157 129.007368 12.060150 27.490397 0.000000 0.000000 0.000000 -8.146853 1.262850 1.538313 46.965471 51.975407 16.025628 -135.215943 13.369734 -27.148850 0.000000 0.000000 0.000000 
0.014961 0.939514 -0.062104 -2.711025 1.760399 9.368392 8.508425 -0.475156 -8.290084 5.375405 -0.116024 -5.443326 -4.724337 -3.428623 11.430505 0.000000 0.000000 0.000000 -2.303155 0.914634 -10.181848 -2.673567 0.394500 1.828626 -1.180342 -5.620460 7.244590 0.000000 0.000000 0.000000 -5.057233 0.178672 -5.130468 5.131247 -1.974042 -5.145149 1.581731 -5.308354 -0.715263 2.428048 -1.722141 -1.762154 0.000000 0.000000 0.000000 11.832913 2.195621 0.102449 -23.904248 -60.918458 10.284239 131.353042 10.102493 24.280123 0.000000 0.000000 0.000000 -6.890855 1.469441 1.379248 50.963212 51.107387 17.676084 -136.409352 14.992608 -31.047029 0.000000 0.000000 0.000000 
